<svg width="731" height="470" viewBox="0 0 731 470" fill="none" xmlns="http://www.w3.org/2000/svg" preserveAspectRatio="none">
<rect x="89" y="197" width="612" height="3" fill="#CCCCCC"/>
<rect x="388" y="400" width="400" height="3" transform="rotate(-90 388 400)" fill="#CCCCCC"/>
<path d="M199.448 97.8477L202.319 82.6719H206.699L201.968 104H197.544L194.072 89.7324L190.601 104H186.177L181.445 82.6719H185.825L188.711 97.8184L192.227 82.6719H195.947L199.448 97.8477ZM213.276 104H209.028V88.1504H213.276V104ZM208.779 84.0488C208.779 83.4141 208.989 82.8916 209.409 82.4814C209.839 82.0713 210.42 81.8662 211.152 81.8662C211.875 81.8662 212.451 82.0713 212.881 82.4814C213.311 82.8916 213.525 83.4141 213.525 84.0488C213.525 84.6934 213.306 85.2207 212.866 85.6309C212.437 86.041 211.865 86.2461 211.152 86.2461C210.439 86.2461 209.863 86.041 209.424 85.6309C208.994 85.2207 208.779 84.6934 208.779 84.0488ZM221.641 100.587H229.39V104H216.235V101.422L223.691 91.5781H216.455V88.1504H229.155V90.6553L221.641 100.587ZM241.226 104C241.03 103.619 240.889 103.146 240.801 102.579C239.775 103.722 238.442 104.293 236.802 104.293C235.249 104.293 233.96 103.844 232.935 102.945C231.919 102.047 231.411 100.914 231.411 99.5469C231.411 97.8672 232.031 96.5781 233.271 95.6797C234.521 94.7812 236.323 94.3271 238.677 94.3174H240.625V93.4092C240.625 92.6768 240.435 92.0908 240.054 91.6514C239.683 91.2119 239.092 90.9922 238.281 90.9922C237.568 90.9922 237.007 91.1631 236.597 91.5049C236.196 91.8467 235.996 92.3154 235.996 92.9111H231.763C231.763 91.9932 232.046 91.1436 232.612 90.3623C233.179 89.5811 233.979 88.9707 235.015 88.5312C236.05 88.082 237.212 87.8574 238.501 87.8574C240.454 87.8574 242.002 88.3506 243.145 89.3369C244.297 90.3135 244.873 91.6904 244.873 93.4678V100.338C244.883 101.842 245.093 102.979 245.503 103.751V104H241.226ZM237.725 101.056C238.35 101.056 238.926 100.919 239.453 100.646C239.98 100.362 240.371 99.9863 240.625 99.5176V96.793H239.043C236.924 96.793 235.796 97.5254 235.659 98.9902L235.645 99.2393C235.645 99.7666 235.83 100.201 236.201 100.543C236.572 100.885 237.08 101.056 237.725 101.056ZM257.031 92.1201C256.455 92.042 255.947 92.0029 255.508 92.0029C253.906 92.0029 252.856 92.5449 252.358 93.6289V104H248.125V88.1504H252.124L252.241 90.04C253.091 88.585 254.268 87.8574 255.771 87.8574C256.24 87.8574 256.68 87.9209 257.09 88.0479L257.031 92.1201ZM258.13 95.958C258.13 93.4873 258.682 91.5195 259.785 90.0547C260.898 88.5898 262.417 87.8574 264.341 87.8574C265.884 87.8574 267.158 88.4336 268.164 89.5859V81.5H272.412V104H268.589L268.384 102.315C267.329 103.634 265.972 104.293 264.312 104.293C262.446 104.293 260.947 103.561 259.814 102.096C258.691 100.621 258.13 98.5752 258.13 95.958ZM262.363 96.2656C262.363 97.75 262.622 98.8877 263.14 99.6787C263.657 100.47 264.409 100.865 265.396 100.865C266.704 100.865 267.627 100.313 268.164 99.21V92.9551C267.637 91.8516 266.724 91.2998 265.425 91.2998C263.384 91.2998 262.363 92.9551 262.363 96.2656Z" fill="#CCCCCC"/>
<path d="M521.687 94.7568H513.249V100.47H523.151V104H508.854V82.6719H523.122V86.2314H513.249V91.3145H521.687V94.7568ZM531.486 92.8818L534.152 88.1504H538.679L534.167 95.9141L538.869 104H534.328L531.501 99.0195L528.688 104H524.133L528.835 95.9141L524.338 88.1504H528.879L531.486 92.8818ZM554.982 96.2217C554.982 98.6631 554.426 100.621 553.312 102.096C552.209 103.561 550.715 104.293 548.83 104.293C547.229 104.293 545.935 103.736 544.948 102.623V110.094H540.715V88.1504H544.641L544.787 89.7031C545.812 88.4727 547.15 87.8574 548.801 87.8574C550.754 87.8574 552.272 88.5801 553.356 90.0254C554.44 91.4707 554.982 93.4629 554.982 96.002V96.2217ZM550.749 95.9141C550.749 94.4395 550.485 93.3018 549.958 92.501C549.44 91.7002 548.684 91.2998 547.688 91.2998C546.359 91.2998 545.446 91.8076 544.948 92.8232V99.3125C545.466 100.357 546.389 100.88 547.717 100.88C549.738 100.88 550.749 99.2246 550.749 95.9141ZM564.914 104.293C562.59 104.293 560.695 103.58 559.23 102.154C557.775 100.729 557.048 98.8291 557.048 96.4561V96.0459C557.048 94.4541 557.355 93.0332 557.971 91.7832C558.586 90.5234 559.455 89.5566 560.578 88.8828C561.711 88.1992 563 87.8574 564.445 87.8574C566.613 87.8574 568.317 88.541 569.558 89.9082C570.808 91.2754 571.433 93.2139 571.433 95.7236V97.4521H561.34C561.477 98.4873 561.887 99.3174 562.57 99.9424C563.264 100.567 564.138 100.88 565.192 100.88C566.823 100.88 568.098 100.289 569.016 99.1074L571.096 101.437C570.461 102.335 569.602 103.038 568.518 103.546C567.434 104.044 566.232 104.293 564.914 104.293ZM564.431 91.2852C563.591 91.2852 562.907 91.5684 562.38 92.1348C561.862 92.7012 561.53 93.5117 561.384 94.5664H567.272V94.2295C567.253 93.292 566.999 92.5693 566.511 92.0615C566.022 91.5439 565.329 91.2852 564.431 91.2852ZM582.756 92.1201C582.18 92.042 581.672 92.0029 581.232 92.0029C579.631 92.0029 578.581 92.5449 578.083 93.6289V104H573.85V88.1504H577.849L577.966 90.04C578.815 88.585 579.992 87.8574 581.496 87.8574C581.965 87.8574 582.404 87.9209 582.814 88.0479L582.756 92.1201ZM590.607 84.2539V88.1504H593.317V91.2559H590.607V99.166C590.607 99.752 590.72 100.172 590.944 100.426C591.169 100.68 591.599 100.807 592.233 100.807C592.702 100.807 593.117 100.772 593.479 100.704V103.912C592.648 104.166 591.794 104.293 590.915 104.293C587.946 104.293 586.433 102.794 586.374 99.7959V91.2559H584.06V88.1504H586.374V84.2539H590.607Z" fill="#CCCCCC"/>
<path d="M519.46 311H515.065L506.511 296.967V311H502.116V289.672H506.511L515.08 303.734V289.672H519.46V311ZM530.314 311.293C527.99 311.293 526.096 310.58 524.631 309.154C523.176 307.729 522.448 305.829 522.448 303.456V303.046C522.448 301.454 522.756 300.033 523.371 298.783C523.986 297.523 524.855 296.557 525.979 295.883C527.111 295.199 528.4 294.857 529.846 294.857C532.014 294.857 533.718 295.541 534.958 296.908C536.208 298.275 536.833 300.214 536.833 302.724V304.452H526.74C526.877 305.487 527.287 306.317 527.971 306.942C528.664 307.567 529.538 307.88 530.593 307.88C532.224 307.88 533.498 307.289 534.416 306.107L536.496 308.437C535.861 309.335 535.002 310.038 533.918 310.546C532.834 311.044 531.633 311.293 530.314 311.293ZM529.831 298.285C528.991 298.285 528.308 298.568 527.78 299.135C527.263 299.701 526.931 300.512 526.784 301.566H532.673V301.229C532.653 300.292 532.399 299.569 531.911 299.062C531.423 298.544 530.729 298.285 529.831 298.285ZM553.034 305.243L555.114 295.15H559.201L555.158 311H551.613L548.61 301.024L545.607 311H542.077L538.034 295.15H542.121L544.187 305.229L547.087 295.15H550.148L553.034 305.243ZM575.593 303.222C575.593 305.761 575.051 307.743 573.967 309.169C572.883 310.585 571.369 311.293 569.426 311.293C567.707 311.293 566.335 310.634 565.31 309.315L565.119 311H561.311V288.5H565.544V296.571C566.521 295.429 567.805 294.857 569.396 294.857C571.33 294.857 572.844 295.57 573.938 296.996C575.041 298.412 575.593 300.409 575.593 302.987V303.222ZM571.359 302.914C571.359 301.312 571.105 300.146 570.598 299.413C570.09 298.671 569.333 298.3 568.327 298.3C566.979 298.3 566.052 298.852 565.544 299.955V306.21C566.062 307.323 566.999 307.88 568.356 307.88C569.724 307.88 570.622 307.206 571.052 305.858C571.257 305.214 571.359 304.232 571.359 302.914ZM582.683 311H578.435V295.15H582.683V311ZM578.186 291.049C578.186 290.414 578.396 289.892 578.815 289.481C579.245 289.071 579.826 288.866 580.559 288.866C581.281 288.866 581.857 289.071 582.287 289.481C582.717 289.892 582.932 290.414 582.932 291.049C582.932 291.693 582.712 292.221 582.272 292.631C581.843 293.041 581.271 293.246 580.559 293.246C579.846 293.246 579.27 293.041 578.83 292.631C578.4 292.221 578.186 291.693 578.186 291.049ZM593.479 311.293C591.154 311.293 589.26 310.58 587.795 309.154C586.34 307.729 585.612 305.829 585.612 303.456V303.046C585.612 301.454 585.92 300.033 586.535 298.783C587.15 297.523 588.02 296.557 589.143 295.883C590.275 295.199 591.564 294.857 593.01 294.857C595.178 294.857 596.882 295.541 598.122 296.908C599.372 298.275 599.997 300.214 599.997 302.724V304.452H589.904C590.041 305.487 590.451 306.317 591.135 306.942C591.828 307.567 592.702 307.88 593.757 307.88C595.388 307.88 596.662 307.289 597.58 306.107L599.66 308.437C599.025 309.335 598.166 310.038 597.082 310.546C595.998 311.044 594.797 311.293 593.479 311.293ZM592.995 298.285C592.155 298.285 591.472 298.568 590.944 299.135C590.427 299.701 590.095 300.512 589.948 301.566H595.837V301.229C595.817 300.292 595.563 299.569 595.075 299.062C594.587 298.544 593.894 298.285 592.995 298.285Z" fill="#CCCCCC"/>
<path d="M175.044 293.231H168.511V311H164.116V293.231H157.671V289.672H175.044V293.231ZM181.416 296.879C182.539 295.531 183.95 294.857 185.649 294.857C189.087 294.857 190.83 296.854 190.879 300.849V311H186.646V300.966C186.646 300.058 186.45 299.389 186.06 298.959C185.669 298.52 185.02 298.3 184.111 298.3C182.871 298.3 181.973 298.778 181.416 299.735V311H177.183V288.5H181.416V296.879ZM201.367 311.293C199.043 311.293 197.148 310.58 195.684 309.154C194.229 307.729 193.501 305.829 193.501 303.456V303.046C193.501 301.454 193.809 300.033 194.424 298.783C195.039 297.523 195.908 296.557 197.031 295.883C198.164 295.199 199.453 294.857 200.898 294.857C203.066 294.857 204.771 295.541 206.011 296.908C207.261 298.275 207.886 300.214 207.886 302.724V304.452H197.793C197.93 305.487 198.34 306.317 199.023 306.942C199.717 307.567 200.591 307.88 201.646 307.88C203.276 307.88 204.551 307.289 205.469 306.107L207.549 308.437C206.914 309.335 206.055 310.038 204.971 310.546C203.887 311.044 202.686 311.293 201.367 311.293ZM200.884 298.285C200.044 298.285 199.36 298.568 198.833 299.135C198.315 299.701 197.983 300.512 197.837 301.566H203.726V301.229C203.706 300.292 203.452 299.569 202.964 299.062C202.476 298.544 201.782 298.285 200.884 298.285ZM235.396 311H231.001L222.446 296.967V311H218.052V289.672H222.446L231.016 303.734V289.672H235.396V311ZM256.753 300.819C256.753 302.919 256.382 304.76 255.64 306.342C254.897 307.924 253.833 309.145 252.446 310.004C251.069 310.863 249.487 311.293 247.7 311.293C245.933 311.293 244.355 310.868 242.969 310.019C241.582 309.169 240.508 307.958 239.746 306.386C238.984 304.804 238.599 302.987 238.589 300.937V299.882C238.589 297.782 238.965 295.937 239.717 294.345C240.479 292.743 241.548 291.518 242.925 290.668C244.312 289.809 245.894 289.379 247.671 289.379C249.448 289.379 251.025 289.809 252.402 290.668C253.789 291.518 254.858 292.743 255.61 294.345C256.372 295.937 256.753 297.777 256.753 299.867V300.819ZM252.3 299.853C252.3 297.616 251.899 295.917 251.099 294.755C250.298 293.593 249.155 293.012 247.671 293.012C246.196 293.012 245.059 293.588 244.258 294.74C243.457 295.883 243.052 297.562 243.042 299.779V300.819C243.042 302.997 243.442 304.687 244.243 305.888C245.044 307.089 246.196 307.689 247.7 307.689C249.175 307.689 250.308 307.113 251.099 305.961C251.89 304.799 252.29 303.109 252.3 300.893V299.853ZM277.466 300.819C277.466 302.919 277.095 304.76 276.353 306.342C275.61 307.924 274.546 309.145 273.159 310.004C271.782 310.863 270.2 311.293 268.413 311.293C266.646 311.293 265.068 310.868 263.682 310.019C262.295 309.169 261.221 307.958 260.459 306.386C259.697 304.804 259.312 302.987 259.302 300.937V299.882C259.302 297.782 259.678 295.937 260.43 294.345C261.191 292.743 262.261 291.518 263.638 290.668C265.024 289.809 266.606 289.379 268.384 289.379C270.161 289.379 271.738 289.809 273.115 290.668C274.502 291.518 275.571 292.743 276.323 294.345C277.085 295.937 277.466 297.777 277.466 299.867V300.819ZM273.013 299.853C273.013 297.616 272.612 295.917 271.812 294.755C271.011 293.593 269.868 293.012 268.384 293.012C266.909 293.012 265.771 293.588 264.971 294.74C264.17 295.883 263.765 297.562 263.755 299.779V300.819C263.755 302.997 264.155 304.687 264.956 305.888C265.757 307.089 266.909 307.689 268.413 307.689C269.888 307.689 271.021 307.113 271.812 305.961C272.603 304.799 273.003 303.109 273.013 300.893V299.853ZM280.659 311V289.672H288.13C290.718 289.672 292.681 290.17 294.019 291.166C295.356 292.152 296.025 293.603 296.025 295.517C296.025 296.562 295.757 297.484 295.22 298.285C294.683 299.076 293.936 299.657 292.979 300.028C294.072 300.302 294.932 300.854 295.557 301.684C296.191 302.514 296.509 303.529 296.509 304.73C296.509 306.781 295.854 308.334 294.546 309.389C293.237 310.443 291.372 310.98 288.95 311H280.659ZM285.054 301.713V307.47H288.818C289.854 307.47 290.659 307.226 291.235 306.737C291.821 306.239 292.114 305.556 292.114 304.687C292.114 302.733 291.104 301.742 289.082 301.713H285.054ZM285.054 298.607H288.306C290.522 298.568 291.631 297.685 291.631 295.956C291.631 294.989 291.348 294.296 290.781 293.876C290.225 293.446 289.341 293.231 288.13 293.231H285.054V298.607Z" fill="#CCCCCC"/>
<path d="M99.3789 181.072C99.3789 183.077 99.0111 184.601 98.2754 185.643C97.5397 186.678 96.4557 187.195 95.0234 187.195C93.6172 187.195 92.5397 186.688 91.791 185.672C91.0423 184.65 90.6582 183.165 90.6387 181.219V178.67C90.6387 176.671 91.0098 175.158 91.752 174.129C92.4941 173.1 93.5781 172.586 95.0039 172.586C96.4102 172.586 97.4844 173.084 98.2266 174.08C98.9688 175.07 99.3529 176.531 99.3789 178.465V181.072ZM98.207 178.523C98.207 176.896 97.9401 175.665 97.4062 174.832C96.8789 173.999 96.0781 173.582 95.0039 173.582C93.9492 173.582 93.1549 173.989 92.6211 174.803C92.0872 175.617 91.8138 176.818 91.8008 178.406V181.199C91.8008 182.82 92.0742 184.061 92.6211 184.92C93.1745 185.779 93.9753 186.209 95.0234 186.209C96.0651 186.209 96.8529 185.789 97.3867 184.949C97.9271 184.109 98.2005 182.879 98.207 181.258V178.523ZM101.977 186.297C101.977 186.069 102.048 185.877 102.191 185.721C102.341 185.558 102.546 185.477 102.807 185.477C103.067 185.477 103.272 185.558 103.422 185.721C103.572 185.877 103.646 186.069 103.646 186.297C103.646 186.525 103.572 186.714 103.422 186.863C103.272 187.007 103.067 187.078 102.807 187.078C102.546 187.078 102.341 187.007 102.191 186.863C102.048 186.714 101.977 186.525 101.977 186.297ZM115.258 181.072C115.258 183.077 114.89 184.601 114.154 185.643C113.419 186.678 112.335 187.195 110.902 187.195C109.496 187.195 108.419 186.688 107.67 185.672C106.921 184.65 106.537 183.165 106.518 181.219V178.67C106.518 176.671 106.889 175.158 107.631 174.129C108.373 173.1 109.457 172.586 110.883 172.586C112.289 172.586 113.363 173.084 114.105 174.08C114.848 175.07 115.232 176.531 115.258 178.465V181.072ZM114.086 178.523C114.086 176.896 113.819 175.665 113.285 174.832C112.758 173.999 111.957 173.582 110.883 173.582C109.828 173.582 109.034 173.989 108.5 174.803C107.966 175.617 107.693 176.818 107.68 178.406V181.199C107.68 182.82 107.953 184.061 108.5 184.92C109.053 185.779 109.854 186.209 110.902 186.209C111.944 186.209 112.732 185.789 113.266 184.949C113.806 184.109 114.079 182.879 114.086 181.258V178.523ZM126.352 181.072C126.352 183.077 125.984 184.601 125.248 185.643C124.512 186.678 123.428 187.195 121.996 187.195C120.59 187.195 119.512 186.688 118.764 185.672C118.015 184.65 117.631 183.165 117.611 181.219V178.67C117.611 176.671 117.982 175.158 118.725 174.129C119.467 173.1 120.551 172.586 121.977 172.586C123.383 172.586 124.457 173.084 125.199 174.08C125.941 175.07 126.326 176.531 126.352 178.465V181.072ZM125.18 178.523C125.18 176.896 124.913 175.665 124.379 174.832C123.852 173.999 123.051 173.582 121.977 173.582C120.922 173.582 120.128 173.989 119.594 174.803C119.06 175.617 118.786 176.818 118.773 178.406V181.199C118.773 182.82 119.047 184.061 119.594 184.92C120.147 185.779 120.948 186.209 121.996 186.209C123.038 186.209 123.826 185.789 124.359 184.949C124.9 184.109 125.173 182.879 125.18 181.258V178.523Z" fill="#777777"/>
<path d="M363.473 384.072C363.473 386.077 363.105 387.601 362.369 388.643C361.633 389.678 360.549 390.195 359.117 390.195C357.711 390.195 356.633 389.688 355.885 388.672C355.136 387.65 354.752 386.165 354.732 384.219V381.67C354.732 379.671 355.104 378.158 355.846 377.129C356.588 376.1 357.672 375.586 359.098 375.586C360.504 375.586 361.578 376.084 362.32 377.08C363.062 378.07 363.447 379.531 363.473 381.465V384.072ZM362.301 381.523C362.301 379.896 362.034 378.665 361.5 377.832C360.973 376.999 360.172 376.582 359.098 376.582C358.043 376.582 357.249 376.989 356.715 377.803C356.181 378.617 355.908 379.818 355.895 381.406V384.199C355.895 385.82 356.168 387.061 356.715 387.92C357.268 388.779 358.069 389.209 359.117 389.209C360.159 389.209 360.947 388.789 361.48 387.949C362.021 387.109 362.294 385.879 362.301 384.258V381.523ZM365.719 378.516C365.719 377.669 365.979 376.969 366.5 376.416C367.027 375.856 367.695 375.576 368.502 375.576C369.309 375.576 369.973 375.856 370.494 376.416C371.021 376.969 371.285 377.689 371.285 378.574V379.268C371.285 380.101 371.025 380.798 370.504 381.357C369.99 381.911 369.329 382.188 368.521 382.188C367.721 382.188 367.053 381.914 366.52 381.367C365.986 380.82 365.719 380.098 365.719 379.199V378.516ZM366.666 379.268C366.666 379.873 366.832 380.371 367.164 380.762C367.503 381.152 367.955 381.348 368.521 381.348C369.075 381.348 369.514 381.152 369.84 380.762C370.172 380.365 370.338 379.854 370.338 379.229V378.516C370.338 377.91 370.169 377.412 369.83 377.021C369.492 376.624 369.049 376.426 368.502 376.426C367.962 376.426 367.519 376.621 367.174 377.012C366.835 377.402 366.666 377.923 366.666 378.574V379.268ZM372.877 386.514C372.877 385.667 373.137 384.967 373.658 384.414C374.186 383.861 374.85 383.584 375.65 383.584C376.451 383.584 377.115 383.861 377.643 384.414C378.176 384.961 378.443 385.684 378.443 386.582V387.275C378.443 388.122 378.18 388.822 377.652 389.375C377.132 389.928 376.471 390.205 375.67 390.205C374.869 390.205 374.202 389.932 373.668 389.385C373.141 388.831 372.877 388.112 372.877 387.227V386.514ZM373.814 387.275C373.814 387.887 373.98 388.389 374.312 388.779C374.651 389.17 375.104 389.365 375.67 389.365C376.23 389.365 376.673 389.17 376.998 388.779C377.33 388.382 377.496 387.865 377.496 387.227V386.514C377.496 385.889 377.327 385.387 376.988 385.01C376.656 384.626 376.21 384.434 375.65 384.434C375.104 384.434 374.661 384.626 374.322 385.01C373.984 385.394 373.814 385.908 373.814 386.553V387.275ZM368.893 388.818L368.16 388.35L375.104 377.236L375.836 377.705L368.893 388.818Z" fill="#777777"/>
<path d="M343.143 217.715L343.836 210.781H350.945V211.865H344.842L344.344 216.67C345.105 216.149 345.997 215.889 347.02 215.889C348.302 215.889 349.324 216.305 350.086 217.139C350.848 217.972 351.229 219.082 351.229 220.469C351.229 221.966 350.857 223.128 350.115 223.955C349.373 224.782 348.328 225.195 346.98 225.195C345.743 225.195 344.741 224.85 343.973 224.16C343.204 223.47 342.765 222.503 342.654 221.26H343.777C343.888 222.23 344.217 222.965 344.764 223.467C345.311 223.962 346.049 224.209 346.98 224.209C347.996 224.209 348.761 223.887 349.275 223.242C349.796 222.598 350.057 221.68 350.057 220.488C350.057 219.447 349.767 218.597 349.188 217.939C348.608 217.282 347.817 216.953 346.814 216.953C346.261 216.953 345.779 217.025 345.369 217.168C344.959 217.305 344.526 217.575 344.07 217.979L343.143 217.715ZM362.02 219.072C362.02 221.077 361.652 222.601 360.916 223.643C360.18 224.678 359.096 225.195 357.664 225.195C356.258 225.195 355.18 224.688 354.432 223.672C353.683 222.65 353.299 221.165 353.279 219.219V216.67C353.279 214.671 353.65 213.158 354.393 212.129C355.135 211.1 356.219 210.586 357.645 210.586C359.051 210.586 360.125 211.084 360.867 212.08C361.609 213.07 361.993 214.531 362.02 216.465V219.072ZM360.848 216.523C360.848 214.896 360.581 213.665 360.047 212.832C359.52 211.999 358.719 211.582 357.645 211.582C356.59 211.582 355.796 211.989 355.262 212.803C354.728 213.617 354.454 214.818 354.441 216.406V219.199C354.441 220.82 354.715 222.061 355.262 222.92C355.815 223.779 356.616 224.209 357.664 224.209C358.706 224.209 359.493 223.789 360.027 222.949C360.568 222.109 360.841 220.879 360.848 219.258V216.523ZM364.266 213.516C364.266 212.669 364.526 211.969 365.047 211.416C365.574 210.856 366.242 210.576 367.049 210.576C367.856 210.576 368.52 210.856 369.041 211.416C369.568 211.969 369.832 212.689 369.832 213.574V214.268C369.832 215.101 369.572 215.798 369.051 216.357C368.536 216.911 367.876 217.188 367.068 217.188C366.268 217.188 365.6 216.914 365.066 216.367C364.533 215.82 364.266 215.098 364.266 214.199V213.516ZM365.213 214.268C365.213 214.873 365.379 215.371 365.711 215.762C366.049 216.152 366.502 216.348 367.068 216.348C367.622 216.348 368.061 216.152 368.387 215.762C368.719 215.365 368.885 214.854 368.885 214.229V213.516C368.885 212.91 368.715 212.412 368.377 212.021C368.038 211.624 367.596 211.426 367.049 211.426C366.508 211.426 366.066 211.621 365.721 212.012C365.382 212.402 365.213 212.923 365.213 213.574V214.268ZM371.424 221.514C371.424 220.667 371.684 219.967 372.205 219.414C372.732 218.861 373.396 218.584 374.197 218.584C374.998 218.584 375.662 218.861 376.189 219.414C376.723 219.961 376.99 220.684 376.99 221.582V222.275C376.99 223.122 376.727 223.822 376.199 224.375C375.678 224.928 375.018 225.205 374.217 225.205C373.416 225.205 372.749 224.932 372.215 224.385C371.688 223.831 371.424 223.112 371.424 222.227V221.514ZM372.361 222.275C372.361 222.887 372.527 223.389 372.859 223.779C373.198 224.17 373.65 224.365 374.217 224.365C374.777 224.365 375.219 224.17 375.545 223.779C375.877 223.382 376.043 222.865 376.043 222.227V221.514C376.043 220.889 375.874 220.387 375.535 220.01C375.203 219.626 374.757 219.434 374.197 219.434C373.65 219.434 373.208 219.626 372.869 220.01C372.531 220.394 372.361 220.908 372.361 221.553V222.275ZM367.439 223.818L366.707 223.35L373.65 212.236L374.383 212.705L367.439 223.818Z" fill="#777777"/>
<path d="M339.244 18H338.072V5.1875L334.205 6.62305V5.5293L339.049 3.73242H339.244V18ZM353.473 12.0723C353.473 14.0775 353.105 15.6009 352.369 16.6426C351.633 17.6777 350.549 18.1953 349.117 18.1953C347.711 18.1953 346.633 17.6875 345.885 16.6719C345.136 15.6497 344.752 14.1654 344.732 12.2188V9.66992C344.732 7.67122 345.104 6.15755 345.846 5.12891C346.588 4.10026 347.672 3.58594 349.098 3.58594C350.504 3.58594 351.578 4.08398 352.32 5.08008C353.062 6.06966 353.447 7.53125 353.473 9.46484V12.0723ZM352.301 9.52344C352.301 7.89583 352.034 6.66536 351.5 5.83203C350.973 4.9987 350.172 4.58203 349.098 4.58203C348.043 4.58203 347.249 4.98893 346.715 5.80273C346.181 6.61654 345.908 7.81771 345.895 9.40625V12.1992C345.895 13.8203 346.168 15.0605 346.715 15.9199C347.268 16.7793 348.069 17.209 349.117 17.209C350.159 17.209 350.947 16.7891 351.48 15.9492C352.021 15.1094 352.294 13.8789 352.301 12.2578V9.52344ZM364.566 12.0723C364.566 14.0775 364.199 15.6009 363.463 16.6426C362.727 17.6777 361.643 18.1953 360.211 18.1953C358.805 18.1953 357.727 17.6875 356.979 16.6719C356.23 15.6497 355.846 14.1654 355.826 12.2188V9.66992C355.826 7.67122 356.197 6.15755 356.939 5.12891C357.682 4.10026 358.766 3.58594 360.191 3.58594C361.598 3.58594 362.672 4.08398 363.414 5.08008C364.156 6.06966 364.54 7.53125 364.566 9.46484V12.0723ZM363.395 9.52344C363.395 7.89583 363.128 6.66536 362.594 5.83203C362.066 4.9987 361.266 4.58203 360.191 4.58203C359.137 4.58203 358.342 4.98893 357.809 5.80273C357.275 6.61654 357.001 7.81771 356.988 9.40625V12.1992C356.988 13.8203 357.262 15.0605 357.809 15.9199C358.362 16.7793 359.163 17.209 360.211 17.209C361.253 17.209 362.04 16.7891 362.574 15.9492C363.115 15.1094 363.388 13.8789 363.395 12.2578V9.52344ZM366.812 6.51562C366.812 5.66927 367.073 4.9694 367.594 4.41602C368.121 3.85612 368.788 3.57617 369.596 3.57617C370.403 3.57617 371.067 3.85612 371.588 4.41602C372.115 4.9694 372.379 5.6888 372.379 6.57422V7.26758C372.379 8.10091 372.118 8.79753 371.598 9.35742C371.083 9.91081 370.423 10.1875 369.615 10.1875C368.814 10.1875 368.147 9.91406 367.613 9.36719C367.079 8.82031 366.812 8.09766 366.812 7.19922V6.51562ZM367.76 7.26758C367.76 7.87305 367.926 8.37109 368.258 8.76172C368.596 9.15234 369.049 9.34766 369.615 9.34766C370.169 9.34766 370.608 9.15234 370.934 8.76172C371.266 8.36458 371.432 7.85352 371.432 7.22852V6.51562C371.432 5.91016 371.262 5.41211 370.924 5.02148C370.585 4.62435 370.143 4.42578 369.596 4.42578C369.055 4.42578 368.613 4.62109 368.268 5.01172C367.929 5.40234 367.76 5.92318 367.76 6.57422V7.26758ZM373.971 14.5137C373.971 13.6673 374.231 12.9674 374.752 12.4141C375.279 11.8607 375.943 11.584 376.744 11.584C377.545 11.584 378.209 11.8607 378.736 12.4141C379.27 12.9609 379.537 13.6836 379.537 14.582V15.2754C379.537 16.1217 379.273 16.8216 378.746 17.375C378.225 17.9284 377.564 18.2051 376.764 18.2051C375.963 18.2051 375.296 17.9316 374.762 17.3848C374.234 16.8314 373.971 16.112 373.971 15.2266V14.5137ZM374.908 15.2754C374.908 15.8874 375.074 16.3887 375.406 16.7793C375.745 17.1699 376.197 17.3652 376.764 17.3652C377.324 17.3652 377.766 17.1699 378.092 16.7793C378.424 16.3822 378.59 15.8646 378.59 15.2266V14.5137C378.59 13.8887 378.421 13.3874 378.082 13.0098C377.75 12.6257 377.304 12.4336 376.744 12.4336C376.197 12.4336 375.755 12.6257 375.416 13.0098C375.077 13.3939 374.908 13.9082 374.908 14.5527V15.2754ZM369.986 16.8184L369.254 16.3496L376.197 5.23633L376.93 5.70508L369.986 16.8184Z" fill="#777777"/>
<path d="M409.99 190H408.818V177.188L404.951 178.623V177.529L409.795 175.732H409.99V190ZM424.219 184.072C424.219 186.077 423.851 187.601 423.115 188.643C422.38 189.678 421.296 190.195 419.863 190.195C418.457 190.195 417.38 189.688 416.631 188.672C415.882 187.65 415.498 186.165 415.479 184.219V181.67C415.479 179.671 415.85 178.158 416.592 177.129C417.334 176.1 418.418 175.586 419.844 175.586C421.25 175.586 422.324 176.084 423.066 177.08C423.809 178.07 424.193 179.531 424.219 181.465V184.072ZM423.047 181.523C423.047 179.896 422.78 178.665 422.246 177.832C421.719 176.999 420.918 176.582 419.844 176.582C418.789 176.582 417.995 176.989 417.461 177.803C416.927 178.617 416.654 179.818 416.641 181.406V184.199C416.641 185.82 416.914 187.061 417.461 187.92C418.014 188.779 418.815 189.209 419.863 189.209C420.905 189.209 421.693 188.789 422.227 187.949C422.767 187.109 423.04 185.879 423.047 184.258V181.523ZM426.641 189.297C426.641 189.069 426.712 188.877 426.855 188.721C427.005 188.558 427.21 188.477 427.471 188.477C427.731 188.477 427.936 188.558 428.086 188.721C428.236 188.877 428.311 189.069 428.311 189.297C428.311 189.525 428.236 189.714 428.086 189.863C427.936 190.007 427.731 190.078 427.471 190.078C427.21 190.078 427.005 190.007 426.855 189.863C426.712 189.714 426.641 189.525 426.641 189.297ZM426.66 180.283C426.66 180.055 426.732 179.863 426.875 179.707C427.025 179.544 427.23 179.463 427.49 179.463C427.751 179.463 427.956 179.544 428.105 179.707C428.255 179.863 428.33 180.055 428.33 180.283C428.33 180.511 428.255 180.7 428.105 180.85C427.956 180.993 427.751 181.064 427.49 181.064C427.23 181.064 427.025 180.993 426.875 180.85C426.732 180.7 426.66 180.511 426.66 180.283ZM439.512 184.072C439.512 186.077 439.144 187.601 438.408 188.643C437.673 189.678 436.589 190.195 435.156 190.195C433.75 190.195 432.673 189.688 431.924 188.672C431.175 187.65 430.791 186.165 430.771 184.219V181.67C430.771 179.671 431.143 178.158 431.885 177.129C432.627 176.1 433.711 175.586 435.137 175.586C436.543 175.586 437.617 176.084 438.359 177.08C439.102 178.07 439.486 179.531 439.512 181.465V184.072ZM438.34 181.523C438.34 179.896 438.073 178.665 437.539 177.832C437.012 176.999 436.211 176.582 435.137 176.582C434.082 176.582 433.288 176.989 432.754 177.803C432.22 178.617 431.947 179.818 431.934 181.406V184.199C431.934 185.82 432.207 187.061 432.754 187.92C433.307 188.779 434.108 189.209 435.156 189.209C436.198 189.209 436.986 188.789 437.52 187.949C438.06 187.109 438.333 185.879 438.34 184.258V181.523ZM450.605 184.072C450.605 186.077 450.238 187.601 449.502 188.643C448.766 189.678 447.682 190.195 446.25 190.195C444.844 190.195 443.766 189.688 443.018 188.672C442.269 187.65 441.885 186.165 441.865 184.219V181.67C441.865 179.671 442.236 178.158 442.979 177.129C443.721 176.1 444.805 175.586 446.23 175.586C447.637 175.586 448.711 176.084 449.453 177.08C450.195 178.07 450.579 179.531 450.605 181.465V184.072ZM449.434 181.523C449.434 179.896 449.167 178.665 448.633 177.832C448.105 176.999 447.305 176.582 446.23 176.582C445.176 176.582 444.382 176.989 443.848 177.803C443.314 178.617 443.04 179.818 443.027 181.406V184.199C443.027 185.82 443.301 187.061 443.848 187.92C444.401 188.779 445.202 189.209 446.25 189.209C447.292 189.209 448.079 188.789 448.613 187.949C449.154 187.109 449.427 185.879 449.434 184.258V181.523Z" fill="#777777"/>
<path d="M666.457 190H657.551V189.102L662.424 183.574C663.231 182.643 663.791 181.875 664.104 181.27C664.416 180.664 664.572 180.075 664.572 179.502C664.572 178.604 664.309 177.894 663.781 177.373C663.254 176.846 662.528 176.582 661.604 176.582C660.646 176.582 659.872 176.888 659.279 177.5C658.693 178.112 658.4 178.906 658.4 179.883H657.238C657.238 179.082 657.417 178.353 657.775 177.695C658.14 177.038 658.654 176.523 659.318 176.152C659.989 175.775 660.751 175.586 661.604 175.586C662.906 175.586 663.921 175.928 664.65 176.611C665.386 177.295 665.754 178.226 665.754 179.404C665.754 180.068 665.546 180.794 665.129 181.582C664.719 182.37 663.993 183.353 662.951 184.531L658.986 189.014H666.457V190ZM677.219 184.072C677.219 186.077 676.851 187.601 676.115 188.643C675.38 189.678 674.296 190.195 672.863 190.195C671.457 190.195 670.38 189.688 669.631 188.672C668.882 187.65 668.498 186.165 668.479 184.219V181.67C668.479 179.671 668.85 178.158 669.592 177.129C670.334 176.1 671.418 175.586 672.844 175.586C674.25 175.586 675.324 176.084 676.066 177.08C676.809 178.07 677.193 179.531 677.219 181.465V184.072ZM676.047 181.523C676.047 179.896 675.78 178.665 675.246 177.832C674.719 176.999 673.918 176.582 672.844 176.582C671.789 176.582 670.995 176.989 670.461 177.803C669.927 178.617 669.654 179.818 669.641 181.406V184.199C669.641 185.82 669.914 187.061 670.461 187.92C671.014 188.779 671.815 189.209 672.863 189.209C673.905 189.209 674.693 188.789 675.227 187.949C675.767 187.109 676.04 185.879 676.047 184.258V181.523ZM679.641 189.297C679.641 189.069 679.712 188.877 679.855 188.721C680.005 188.558 680.21 188.477 680.471 188.477C680.731 188.477 680.936 188.558 681.086 188.721C681.236 188.877 681.311 189.069 681.311 189.297C681.311 189.525 681.236 189.714 681.086 189.863C680.936 190.007 680.731 190.078 680.471 190.078C680.21 190.078 680.005 190.007 679.855 189.863C679.712 189.714 679.641 189.525 679.641 189.297ZM679.66 180.283C679.66 180.055 679.732 179.863 679.875 179.707C680.025 179.544 680.23 179.463 680.49 179.463C680.751 179.463 680.956 179.544 681.105 179.707C681.255 179.863 681.33 180.055 681.33 180.283C681.33 180.511 681.255 180.7 681.105 180.85C680.956 180.993 680.751 181.064 680.49 181.064C680.23 181.064 680.025 180.993 679.875 180.85C679.732 180.7 679.66 180.511 679.66 180.283ZM692.512 184.072C692.512 186.077 692.144 187.601 691.408 188.643C690.673 189.678 689.589 190.195 688.156 190.195C686.75 190.195 685.673 189.688 684.924 188.672C684.175 187.65 683.791 186.165 683.771 184.219V181.67C683.771 179.671 684.143 178.158 684.885 177.129C685.627 176.1 686.711 175.586 688.137 175.586C689.543 175.586 690.617 176.084 691.359 177.08C692.102 178.07 692.486 179.531 692.512 181.465V184.072ZM691.34 181.523C691.34 179.896 691.073 178.665 690.539 177.832C690.012 176.999 689.211 176.582 688.137 176.582C687.082 176.582 686.288 176.989 685.754 177.803C685.22 178.617 684.947 179.818 684.934 181.406V184.199C684.934 185.82 685.207 187.061 685.754 187.92C686.307 188.779 687.108 189.209 688.156 189.209C689.198 189.209 689.986 188.789 690.52 187.949C691.06 187.109 691.333 185.879 691.34 184.258V181.523ZM703.605 184.072C703.605 186.077 703.238 187.601 702.502 188.643C701.766 189.678 700.682 190.195 699.25 190.195C697.844 190.195 696.766 189.688 696.018 188.672C695.269 187.65 694.885 186.165 694.865 184.219V181.67C694.865 179.671 695.236 178.158 695.979 177.129C696.721 176.1 697.805 175.586 699.23 175.586C700.637 175.586 701.711 176.084 702.453 177.08C703.195 178.07 703.579 179.531 703.605 181.465V184.072ZM702.434 181.523C702.434 179.896 702.167 178.665 701.633 177.832C701.105 176.999 700.305 176.582 699.23 176.582C698.176 176.582 697.382 176.989 696.848 177.803C696.314 178.617 696.04 179.818 696.027 181.406V184.199C696.027 185.82 696.301 187.061 696.848 187.92C697.401 188.779 698.202 189.209 699.25 189.209C700.292 189.209 701.079 188.789 701.613 187.949C702.154 187.109 702.427 185.879 702.434 184.258V181.523Z" fill="#777777"/>
</svg>
