<svg width="612" height="400" viewBox="0 0 612 400" fill="none" xmlns="http://www.w3.org/2000/svg" preserveAspectRatio="none">
<rect y="197" width="612" height="3" fill="#CCCCCC"/>
<rect x="299" y="400" width="400" height="3" transform="rotate(-90 299 400)" fill="#CCCCCC"/>
<path d="M116.448 97.8477L119.319 82.6719H123.699L118.968 104H114.544L111.072 89.7324L107.601 104H103.177L98.4453 82.6719H102.825L105.711 97.8184L109.227 82.6719H112.947L116.448 97.8477ZM130.276 104H126.028V88.1504H130.276V104ZM125.779 84.0488C125.779 83.4141 125.989 82.8916 126.409 82.4814C126.839 82.0713 127.42 81.8662 128.152 81.8662C128.875 81.8662 129.451 82.0713 129.881 82.4814C130.311 82.8916 130.525 83.4141 130.525 84.0488C130.525 84.6934 130.306 85.2207 129.866 85.6309C129.437 86.041 128.865 86.2461 128.152 86.2461C127.439 86.2461 126.863 86.041 126.424 85.6309C125.994 85.2207 125.779 84.6934 125.779 84.0488ZM138.641 100.587H146.39V104H133.235V101.422L140.691 91.5781H133.455V88.1504H146.155V90.6553L138.641 100.587ZM158.226 104C158.03 103.619 157.889 103.146 157.801 102.579C156.775 103.722 155.442 104.293 153.802 104.293C152.249 104.293 150.96 103.844 149.935 102.945C148.919 102.047 148.411 100.914 148.411 99.5469C148.411 97.8672 149.031 96.5781 150.271 95.6797C151.521 94.7812 153.323 94.3271 155.677 94.3174H157.625V93.4092C157.625 92.6768 157.435 92.0908 157.054 91.6514C156.683 91.2119 156.092 90.9922 155.281 90.9922C154.568 90.9922 154.007 91.1631 153.597 91.5049C153.196 91.8467 152.996 92.3154 152.996 92.9111H148.763C148.763 91.9932 149.046 91.1436 149.612 90.3623C150.179 89.5811 150.979 88.9707 152.015 88.5312C153.05 88.082 154.212 87.8574 155.501 87.8574C157.454 87.8574 159.002 88.3506 160.145 89.3369C161.297 90.3135 161.873 91.6904 161.873 93.4678V100.338C161.883 101.842 162.093 102.979 162.503 103.751V104H158.226ZM154.725 101.056C155.35 101.056 155.926 100.919 156.453 100.646C156.98 100.362 157.371 99.9863 157.625 99.5176V96.793H156.043C153.924 96.793 152.796 97.5254 152.659 98.9902L152.645 99.2393C152.645 99.7666 152.83 100.201 153.201 100.543C153.572 100.885 154.08 101.056 154.725 101.056ZM174.031 92.1201C173.455 92.042 172.947 92.0029 172.508 92.0029C170.906 92.0029 169.856 92.5449 169.358 93.6289V104H165.125V88.1504H169.124L169.241 90.04C170.091 88.585 171.268 87.8574 172.771 87.8574C173.24 87.8574 173.68 87.9209 174.09 88.0479L174.031 92.1201ZM175.13 95.958C175.13 93.4873 175.682 91.5195 176.785 90.0547C177.898 88.5898 179.417 87.8574 181.341 87.8574C182.884 87.8574 184.158 88.4336 185.164 89.5859V81.5H189.412V104H185.589L185.384 102.315C184.329 103.634 182.972 104.293 181.312 104.293C179.446 104.293 177.947 103.561 176.814 102.096C175.691 100.621 175.13 98.5752 175.13 95.958ZM179.363 96.2656C179.363 97.75 179.622 98.8877 180.14 99.6787C180.657 100.47 181.409 100.865 182.396 100.865C183.704 100.865 184.627 100.313 185.164 99.21V92.9551C184.637 91.8516 183.724 91.2998 182.425 91.2998C180.384 91.2998 179.363 92.9551 179.363 96.2656Z" fill="#CCCCCC"/>
<path d="M432.687 94.7568H424.249V100.47H434.151V104H419.854V82.6719H434.122V86.2314H424.249V91.3145H432.687V94.7568ZM442.486 92.8818L445.152 88.1504H449.679L445.167 95.9141L449.869 104H445.328L442.501 99.0195L439.688 104H435.133L439.835 95.9141L435.338 88.1504H439.879L442.486 92.8818ZM465.982 96.2217C465.982 98.6631 465.426 100.621 464.312 102.096C463.209 103.561 461.715 104.293 459.83 104.293C458.229 104.293 456.935 103.736 455.948 102.623V110.094H451.715V88.1504H455.641L455.787 89.7031C456.812 88.4727 458.15 87.8574 459.801 87.8574C461.754 87.8574 463.272 88.5801 464.356 90.0254C465.44 91.4707 465.982 93.4629 465.982 96.002V96.2217ZM461.749 95.9141C461.749 94.4395 461.485 93.3018 460.958 92.501C460.44 91.7002 459.684 91.2998 458.688 91.2998C457.359 91.2998 456.446 91.8076 455.948 92.8232V99.3125C456.466 100.357 457.389 100.88 458.717 100.88C460.738 100.88 461.749 99.2246 461.749 95.9141ZM475.914 104.293C473.59 104.293 471.695 103.58 470.23 102.154C468.775 100.729 468.048 98.8291 468.048 96.4561V96.0459C468.048 94.4541 468.355 93.0332 468.971 91.7832C469.586 90.5234 470.455 89.5566 471.578 88.8828C472.711 88.1992 474 87.8574 475.445 87.8574C477.613 87.8574 479.317 88.541 480.558 89.9082C481.808 91.2754 482.433 93.2139 482.433 95.7236V97.4521H472.34C472.477 98.4873 472.887 99.3174 473.57 99.9424C474.264 100.567 475.138 100.88 476.192 100.88C477.823 100.88 479.098 100.289 480.016 99.1074L482.096 101.437C481.461 102.335 480.602 103.038 479.518 103.546C478.434 104.044 477.232 104.293 475.914 104.293ZM475.431 91.2852C474.591 91.2852 473.907 91.5684 473.38 92.1348C472.862 92.7012 472.53 93.5117 472.384 94.5664H478.272V94.2295C478.253 93.292 477.999 92.5693 477.511 92.0615C477.022 91.5439 476.329 91.2852 475.431 91.2852ZM493.756 92.1201C493.18 92.042 492.672 92.0029 492.232 92.0029C490.631 92.0029 489.581 92.5449 489.083 93.6289V104H484.85V88.1504H488.849L488.966 90.04C489.815 88.585 490.992 87.8574 492.496 87.8574C492.965 87.8574 493.404 87.9209 493.814 88.0479L493.756 92.1201ZM501.607 84.2539V88.1504H504.317V91.2559H501.607V99.166C501.607 99.752 501.72 100.172 501.944 100.426C502.169 100.68 502.599 100.807 503.233 100.807C503.702 100.807 504.117 100.772 504.479 100.704V103.912C503.648 104.166 502.794 104.293 501.915 104.293C498.946 104.293 497.433 102.794 497.374 99.7959V91.2559H495.06V88.1504H497.374V84.2539H501.607Z" fill="#CCCCCC"/>
<path d="M430.46 311H426.065L417.511 296.967V311H413.116V289.672H417.511L426.08 303.734V289.672H430.46V311ZM441.314 311.293C438.99 311.293 437.096 310.58 435.631 309.154C434.176 307.729 433.448 305.829 433.448 303.456V303.046C433.448 301.454 433.756 300.033 434.371 298.783C434.986 297.523 435.855 296.557 436.979 295.883C438.111 295.199 439.4 294.857 440.846 294.857C443.014 294.857 444.718 295.541 445.958 296.908C447.208 298.275 447.833 300.214 447.833 302.724V304.452H437.74C437.877 305.487 438.287 306.317 438.971 306.942C439.664 307.567 440.538 307.88 441.593 307.88C443.224 307.88 444.498 307.289 445.416 306.107L447.496 308.437C446.861 309.335 446.002 310.038 444.918 310.546C443.834 311.044 442.633 311.293 441.314 311.293ZM440.831 298.285C439.991 298.285 439.308 298.568 438.78 299.135C438.263 299.701 437.931 300.512 437.784 301.566H443.673V301.229C443.653 300.292 443.399 299.569 442.911 299.062C442.423 298.544 441.729 298.285 440.831 298.285ZM464.034 305.243L466.114 295.15H470.201L466.158 311H462.613L459.61 301.024L456.607 311H453.077L449.034 295.15H453.121L455.187 305.229L458.087 295.15H461.148L464.034 305.243ZM486.593 303.222C486.593 305.761 486.051 307.743 484.967 309.169C483.883 310.585 482.369 311.293 480.426 311.293C478.707 311.293 477.335 310.634 476.31 309.315L476.119 311H472.311V288.5H476.544V296.571C477.521 295.429 478.805 294.857 480.396 294.857C482.33 294.857 483.844 295.57 484.938 296.996C486.041 298.412 486.593 300.409 486.593 302.987V303.222ZM482.359 302.914C482.359 301.312 482.105 300.146 481.598 299.413C481.09 298.671 480.333 298.3 479.327 298.3C477.979 298.3 477.052 298.852 476.544 299.955V306.21C477.062 307.323 477.999 307.88 479.356 307.88C480.724 307.88 481.622 307.206 482.052 305.858C482.257 305.214 482.359 304.232 482.359 302.914ZM493.683 311H489.435V295.15H493.683V311ZM489.186 291.049C489.186 290.414 489.396 289.892 489.815 289.481C490.245 289.071 490.826 288.866 491.559 288.866C492.281 288.866 492.857 289.071 493.287 289.481C493.717 289.892 493.932 290.414 493.932 291.049C493.932 291.693 493.712 292.221 493.272 292.631C492.843 293.041 492.271 293.246 491.559 293.246C490.846 293.246 490.27 293.041 489.83 292.631C489.4 292.221 489.186 291.693 489.186 291.049ZM504.479 311.293C502.154 311.293 500.26 310.58 498.795 309.154C497.34 307.729 496.612 305.829 496.612 303.456V303.046C496.612 301.454 496.92 300.033 497.535 298.783C498.15 297.523 499.02 296.557 500.143 295.883C501.275 295.199 502.564 294.857 504.01 294.857C506.178 294.857 507.882 295.541 509.122 296.908C510.372 298.275 510.997 300.214 510.997 302.724V304.452H500.904C501.041 305.487 501.451 306.317 502.135 306.942C502.828 307.567 503.702 307.88 504.757 307.88C506.388 307.88 507.662 307.289 508.58 306.107L510.66 308.437C510.025 309.335 509.166 310.038 508.082 310.546C506.998 311.044 505.797 311.293 504.479 311.293ZM503.995 298.285C503.155 298.285 502.472 298.568 501.944 299.135C501.427 299.701 501.095 300.512 500.948 301.566H506.837V301.229C506.817 300.292 506.563 299.569 506.075 299.062C505.587 298.544 504.894 298.285 503.995 298.285Z" fill="#CCCCCC"/>
<path d="M92.0439 293.231H85.5107V311H81.1162V293.231H74.6709V289.672H92.0439V293.231ZM98.416 296.879C99.5391 295.531 100.95 294.857 102.649 294.857C106.087 294.857 107.83 296.854 107.879 300.849V311H103.646V300.966C103.646 300.058 103.45 299.389 103.06 298.959C102.669 298.52 102.02 298.3 101.111 298.3C99.8711 298.3 98.9727 298.778 98.416 299.735V311H94.1826V288.5H98.416V296.879ZM118.367 311.293C116.043 311.293 114.148 310.58 112.684 309.154C111.229 307.729 110.501 305.829 110.501 303.456V303.046C110.501 301.454 110.809 300.033 111.424 298.783C112.039 297.523 112.908 296.557 114.031 295.883C115.164 295.199 116.453 294.857 117.898 294.857C120.066 294.857 121.771 295.541 123.011 296.908C124.261 298.275 124.886 300.214 124.886 302.724V304.452H114.793C114.93 305.487 115.34 306.317 116.023 306.942C116.717 307.567 117.591 307.88 118.646 307.88C120.276 307.88 121.551 307.289 122.469 306.107L124.549 308.437C123.914 309.335 123.055 310.038 121.971 310.546C120.887 311.044 119.686 311.293 118.367 311.293ZM117.884 298.285C117.044 298.285 116.36 298.568 115.833 299.135C115.315 299.701 114.983 300.512 114.837 301.566H120.726V301.229C120.706 300.292 120.452 299.569 119.964 299.062C119.476 298.544 118.782 298.285 117.884 298.285ZM152.396 311H148.001L139.446 296.967V311H135.052V289.672H139.446L148.016 303.734V289.672H152.396V311ZM173.753 300.819C173.753 302.919 173.382 304.76 172.64 306.342C171.897 307.924 170.833 309.145 169.446 310.004C168.069 310.863 166.487 311.293 164.7 311.293C162.933 311.293 161.355 310.868 159.969 310.019C158.582 309.169 157.508 307.958 156.746 306.386C155.984 304.804 155.599 302.987 155.589 300.937V299.882C155.589 297.782 155.965 295.937 156.717 294.345C157.479 292.743 158.548 291.518 159.925 290.668C161.312 289.809 162.894 289.379 164.671 289.379C166.448 289.379 168.025 289.809 169.402 290.668C170.789 291.518 171.858 292.743 172.61 294.345C173.372 295.937 173.753 297.777 173.753 299.867V300.819ZM169.3 299.853C169.3 297.616 168.899 295.917 168.099 294.755C167.298 293.593 166.155 293.012 164.671 293.012C163.196 293.012 162.059 293.588 161.258 294.74C160.457 295.883 160.052 297.562 160.042 299.779V300.819C160.042 302.997 160.442 304.687 161.243 305.888C162.044 307.089 163.196 307.689 164.7 307.689C166.175 307.689 167.308 307.113 168.099 305.961C168.89 304.799 169.29 303.109 169.3 300.893V299.853ZM194.466 300.819C194.466 302.919 194.095 304.76 193.353 306.342C192.61 307.924 191.546 309.145 190.159 310.004C188.782 310.863 187.2 311.293 185.413 311.293C183.646 311.293 182.068 310.868 180.682 310.019C179.295 309.169 178.221 307.958 177.459 306.386C176.697 304.804 176.312 302.987 176.302 300.937V299.882C176.302 297.782 176.678 295.937 177.43 294.345C178.191 292.743 179.261 291.518 180.638 290.668C182.024 289.809 183.606 289.379 185.384 289.379C187.161 289.379 188.738 289.809 190.115 290.668C191.502 291.518 192.571 292.743 193.323 294.345C194.085 295.937 194.466 297.777 194.466 299.867V300.819ZM190.013 299.853C190.013 297.616 189.612 295.917 188.812 294.755C188.011 293.593 186.868 293.012 185.384 293.012C183.909 293.012 182.771 293.588 181.971 294.74C181.17 295.883 180.765 297.562 180.755 299.779V300.819C180.755 302.997 181.155 304.687 181.956 305.888C182.757 307.089 183.909 307.689 185.413 307.689C186.888 307.689 188.021 307.113 188.812 305.961C189.603 304.799 190.003 303.109 190.013 300.893V299.853ZM197.659 311V289.672H205.13C207.718 289.672 209.681 290.17 211.019 291.166C212.356 292.152 213.025 293.603 213.025 295.517C213.025 296.562 212.757 297.484 212.22 298.285C211.683 299.076 210.936 299.657 209.979 300.028C211.072 300.302 211.932 300.854 212.557 301.684C213.191 302.514 213.509 303.529 213.509 304.73C213.509 306.781 212.854 308.334 211.546 309.389C210.237 310.443 208.372 310.98 205.95 311H197.659ZM202.054 301.713V307.47H205.818C206.854 307.47 207.659 307.226 208.235 306.737C208.821 306.239 209.114 305.556 209.114 304.687C209.114 302.733 208.104 301.742 206.082 301.713H202.054ZM202.054 298.607H205.306C207.522 298.568 208.631 297.685 208.631 295.956C208.631 294.989 208.348 294.296 207.781 293.876C207.225 293.446 206.341 293.231 205.13 293.231H202.054V298.607Z" fill="#CCCCCC"/>
<path d="M9.91211 181.072C9.91211 183.077 9.54427 184.601 8.80859 185.643C8.07292 186.678 6.98893 187.195 5.55664 187.195C4.15039 187.195 3.07292 186.688 2.32422 185.672C1.57552 184.65 1.19141 183.165 1.17188 181.219V178.67C1.17188 176.671 1.54297 175.158 2.28516 174.129C3.02734 173.1 4.11133 172.586 5.53711 172.586C6.94336 172.586 8.01758 173.084 8.75977 174.08C9.50195 175.07 9.88607 176.531 9.91211 178.465V181.072ZM8.74023 178.523C8.74023 176.896 8.47331 175.665 7.93945 174.832C7.41211 173.999 6.61133 173.582 5.53711 173.582C4.48242 173.582 3.68815 173.989 3.1543 174.803C2.62044 175.617 2.34701 176.818 2.33398 178.406V181.199C2.33398 182.82 2.60742 184.061 3.1543 184.92C3.70768 185.779 4.50846 186.209 5.55664 186.209C6.59831 186.209 7.38607 185.789 7.91992 184.949C8.46029 184.109 8.73372 182.879 8.74023 181.258V178.523ZM12.5098 186.297C12.5098 186.069 12.5814 185.877 12.7246 185.721C12.8743 185.558 13.0794 185.477 13.3398 185.477C13.6003 185.477 13.8053 185.558 13.9551 185.721C14.1048 185.877 14.1797 186.069 14.1797 186.297C14.1797 186.525 14.1048 186.714 13.9551 186.863C13.8053 187.007 13.6003 187.078 13.3398 187.078C13.0794 187.078 12.8743 187.007 12.7246 186.863C12.5814 186.714 12.5098 186.525 12.5098 186.297ZM25.791 181.072C25.791 183.077 25.4232 184.601 24.6875 185.643C23.9518 186.678 22.8678 187.195 21.4355 187.195C20.0293 187.195 18.9518 186.688 18.2031 185.672C17.4544 184.65 17.0703 183.165 17.0508 181.219V178.67C17.0508 176.671 17.4219 175.158 18.1641 174.129C18.9062 173.1 19.9902 172.586 21.416 172.586C22.8223 172.586 23.8965 173.084 24.6387 174.08C25.3809 175.07 25.765 176.531 25.791 178.465V181.072ZM24.6191 178.523C24.6191 176.896 24.3522 175.665 23.8184 174.832C23.291 173.999 22.4902 173.582 21.416 173.582C20.3613 173.582 19.5671 173.989 19.0332 174.803C18.4993 175.617 18.2259 176.818 18.2129 178.406V181.199C18.2129 182.82 18.4863 184.061 19.0332 184.92C19.5866 185.779 20.3874 186.209 21.4355 186.209C22.4772 186.209 23.265 185.789 23.7988 184.949C24.3392 184.109 24.6126 182.879 24.6191 181.258V178.523ZM36.8848 181.072C36.8848 183.077 36.5169 184.601 35.7812 185.643C35.0456 186.678 33.9616 187.195 32.5293 187.195C31.123 187.195 30.0456 186.688 29.2969 185.672C28.5482 184.65 28.1641 183.165 28.1445 181.219V178.67C28.1445 176.671 28.5156 175.158 29.2578 174.129C30 173.1 31.084 172.586 32.5098 172.586C33.916 172.586 34.9902 173.084 35.7324 174.08C36.4746 175.07 36.8587 176.531 36.8848 178.465V181.072ZM35.7129 178.523C35.7129 176.896 35.446 175.665 34.9121 174.832C34.3848 173.999 33.584 173.582 32.5098 173.582C31.4551 173.582 30.6608 173.989 30.127 174.803C29.5931 175.617 29.3197 176.818 29.3066 178.406V181.199C29.3066 182.82 29.5801 184.061 30.127 184.92C30.6803 185.779 31.4811 186.209 32.5293 186.209C33.571 186.209 34.3587 185.789 34.8926 184.949C35.4329 184.109 35.7064 182.879 35.7129 181.258V178.523Z" fill="#777777"/>
<path d="M274.473 384.072C274.473 386.077 274.105 387.601 273.369 388.643C272.633 389.678 271.549 390.195 270.117 390.195C268.711 390.195 267.633 389.688 266.885 388.672C266.136 387.65 265.752 386.165 265.732 384.219V381.67C265.732 379.671 266.104 378.158 266.846 377.129C267.588 376.1 268.672 375.586 270.098 375.586C271.504 375.586 272.578 376.084 273.32 377.08C274.062 378.07 274.447 379.531 274.473 381.465V384.072ZM273.301 381.523C273.301 379.896 273.034 378.665 272.5 377.832C271.973 376.999 271.172 376.582 270.098 376.582C269.043 376.582 268.249 376.989 267.715 377.803C267.181 378.617 266.908 379.818 266.895 381.406V384.199C266.895 385.82 267.168 387.061 267.715 387.92C268.268 388.779 269.069 389.209 270.117 389.209C271.159 389.209 271.947 388.789 272.48 387.949C273.021 387.109 273.294 385.879 273.301 384.258V381.523ZM276.719 378.516C276.719 377.669 276.979 376.969 277.5 376.416C278.027 375.856 278.695 375.576 279.502 375.576C280.309 375.576 280.973 375.856 281.494 376.416C282.021 376.969 282.285 377.689 282.285 378.574V379.268C282.285 380.101 282.025 380.798 281.504 381.357C280.99 381.911 280.329 382.188 279.521 382.188C278.721 382.188 278.053 381.914 277.52 381.367C276.986 380.82 276.719 380.098 276.719 379.199V378.516ZM277.666 379.268C277.666 379.873 277.832 380.371 278.164 380.762C278.503 381.152 278.955 381.348 279.521 381.348C280.075 381.348 280.514 381.152 280.84 380.762C281.172 380.365 281.338 379.854 281.338 379.229V378.516C281.338 377.91 281.169 377.412 280.83 377.021C280.492 376.624 280.049 376.426 279.502 376.426C278.962 376.426 278.519 376.621 278.174 377.012C277.835 377.402 277.666 377.923 277.666 378.574V379.268ZM283.877 386.514C283.877 385.667 284.137 384.967 284.658 384.414C285.186 383.861 285.85 383.584 286.65 383.584C287.451 383.584 288.115 383.861 288.643 384.414C289.176 384.961 289.443 385.684 289.443 386.582V387.275C289.443 388.122 289.18 388.822 288.652 389.375C288.132 389.928 287.471 390.205 286.67 390.205C285.869 390.205 285.202 389.932 284.668 389.385C284.141 388.831 283.877 388.112 283.877 387.227V386.514ZM284.814 387.275C284.814 387.887 284.98 388.389 285.312 388.779C285.651 389.17 286.104 389.365 286.67 389.365C287.23 389.365 287.673 389.17 287.998 388.779C288.33 388.382 288.496 387.865 288.496 387.227V386.514C288.496 385.889 288.327 385.387 287.988 385.01C287.656 384.626 287.21 384.434 286.65 384.434C286.104 384.434 285.661 384.626 285.322 385.01C284.984 385.394 284.814 385.908 284.814 386.553V387.275ZM279.893 388.818L279.16 388.35L286.104 377.236L286.836 377.705L279.893 388.818Z" fill="#777777"/>
<path d="M254.143 217.715L254.836 210.781H261.945V211.865H255.842L255.344 216.67C256.105 216.149 256.997 215.889 258.02 215.889C259.302 215.889 260.324 216.305 261.086 217.139C261.848 217.972 262.229 219.082 262.229 220.469C262.229 221.966 261.857 223.128 261.115 223.955C260.373 224.782 259.328 225.195 257.98 225.195C256.743 225.195 255.741 224.85 254.973 224.16C254.204 223.47 253.765 222.503 253.654 221.26H254.777C254.888 222.23 255.217 222.965 255.764 223.467C256.311 223.962 257.049 224.209 257.98 224.209C258.996 224.209 259.761 223.887 260.275 223.242C260.796 222.598 261.057 221.68 261.057 220.488C261.057 219.447 260.767 218.597 260.188 217.939C259.608 217.282 258.817 216.953 257.814 216.953C257.261 216.953 256.779 217.025 256.369 217.168C255.959 217.305 255.526 217.575 255.07 217.979L254.143 217.715ZM273.02 219.072C273.02 221.077 272.652 222.601 271.916 223.643C271.18 224.678 270.096 225.195 268.664 225.195C267.258 225.195 266.18 224.688 265.432 223.672C264.683 222.65 264.299 221.165 264.279 219.219V216.67C264.279 214.671 264.65 213.158 265.393 212.129C266.135 211.1 267.219 210.586 268.645 210.586C270.051 210.586 271.125 211.084 271.867 212.08C272.609 213.07 272.993 214.531 273.02 216.465V219.072ZM271.848 216.523C271.848 214.896 271.581 213.665 271.047 212.832C270.52 211.999 269.719 211.582 268.645 211.582C267.59 211.582 266.796 211.989 266.262 212.803C265.728 213.617 265.454 214.818 265.441 216.406V219.199C265.441 220.82 265.715 222.061 266.262 222.92C266.815 223.779 267.616 224.209 268.664 224.209C269.706 224.209 270.493 223.789 271.027 222.949C271.568 222.109 271.841 220.879 271.848 219.258V216.523ZM275.266 213.516C275.266 212.669 275.526 211.969 276.047 211.416C276.574 210.856 277.242 210.576 278.049 210.576C278.856 210.576 279.52 210.856 280.041 211.416C280.568 211.969 280.832 212.689 280.832 213.574V214.268C280.832 215.101 280.572 215.798 280.051 216.357C279.536 216.911 278.876 217.188 278.068 217.188C277.268 217.188 276.6 216.914 276.066 216.367C275.533 215.82 275.266 215.098 275.266 214.199V213.516ZM276.213 214.268C276.213 214.873 276.379 215.371 276.711 215.762C277.049 216.152 277.502 216.348 278.068 216.348C278.622 216.348 279.061 216.152 279.387 215.762C279.719 215.365 279.885 214.854 279.885 214.229V213.516C279.885 212.91 279.715 212.412 279.377 212.021C279.038 211.624 278.596 211.426 278.049 211.426C277.508 211.426 277.066 211.621 276.721 212.012C276.382 212.402 276.213 212.923 276.213 213.574V214.268ZM282.424 221.514C282.424 220.667 282.684 219.967 283.205 219.414C283.732 218.861 284.396 218.584 285.197 218.584C285.998 218.584 286.662 218.861 287.189 219.414C287.723 219.961 287.99 220.684 287.99 221.582V222.275C287.99 223.122 287.727 223.822 287.199 224.375C286.678 224.928 286.018 225.205 285.217 225.205C284.416 225.205 283.749 224.932 283.215 224.385C282.688 223.831 282.424 223.112 282.424 222.227V221.514ZM283.361 222.275C283.361 222.887 283.527 223.389 283.859 223.779C284.198 224.17 284.65 224.365 285.217 224.365C285.777 224.365 286.219 224.17 286.545 223.779C286.877 223.382 287.043 222.865 287.043 222.227V221.514C287.043 220.889 286.874 220.387 286.535 220.01C286.203 219.626 285.757 219.434 285.197 219.434C284.65 219.434 284.208 219.626 283.869 220.01C283.531 220.394 283.361 220.908 283.361 221.553V222.275ZM278.439 223.818L277.707 223.35L284.65 212.236L285.383 212.705L278.439 223.818Z" fill="#777777"/>
<path d="M250.244 18H249.072V5.1875L245.205 6.62305V5.5293L250.049 3.73242H250.244V18ZM264.473 12.0723C264.473 14.0775 264.105 15.6009 263.369 16.6426C262.633 17.6777 261.549 18.1953 260.117 18.1953C258.711 18.1953 257.633 17.6875 256.885 16.6719C256.136 15.6497 255.752 14.1654 255.732 12.2188V9.66992C255.732 7.67122 256.104 6.15755 256.846 5.12891C257.588 4.10026 258.672 3.58594 260.098 3.58594C261.504 3.58594 262.578 4.08398 263.32 5.08008C264.062 6.06966 264.447 7.53125 264.473 9.46484V12.0723ZM263.301 9.52344C263.301 7.89583 263.034 6.66536 262.5 5.83203C261.973 4.9987 261.172 4.58203 260.098 4.58203C259.043 4.58203 258.249 4.98893 257.715 5.80273C257.181 6.61654 256.908 7.81771 256.895 9.40625V12.1992C256.895 13.8203 257.168 15.0605 257.715 15.9199C258.268 16.7793 259.069 17.209 260.117 17.209C261.159 17.209 261.947 16.7891 262.48 15.9492C263.021 15.1094 263.294 13.8789 263.301 12.2578V9.52344ZM275.566 12.0723C275.566 14.0775 275.199 15.6009 274.463 16.6426C273.727 17.6777 272.643 18.1953 271.211 18.1953C269.805 18.1953 268.727 17.6875 267.979 16.6719C267.23 15.6497 266.846 14.1654 266.826 12.2188V9.66992C266.826 7.67122 267.197 6.15755 267.939 5.12891C268.682 4.10026 269.766 3.58594 271.191 3.58594C272.598 3.58594 273.672 4.08398 274.414 5.08008C275.156 6.06966 275.54 7.53125 275.566 9.46484V12.0723ZM274.395 9.52344C274.395 7.89583 274.128 6.66536 273.594 5.83203C273.066 4.9987 272.266 4.58203 271.191 4.58203C270.137 4.58203 269.342 4.98893 268.809 5.80273C268.275 6.61654 268.001 7.81771 267.988 9.40625V12.1992C267.988 13.8203 268.262 15.0605 268.809 15.9199C269.362 16.7793 270.163 17.209 271.211 17.209C272.253 17.209 273.04 16.7891 273.574 15.9492C274.115 15.1094 274.388 13.8789 274.395 12.2578V9.52344ZM277.812 6.51562C277.812 5.66927 278.073 4.9694 278.594 4.41602C279.121 3.85612 279.788 3.57617 280.596 3.57617C281.403 3.57617 282.067 3.85612 282.588 4.41602C283.115 4.9694 283.379 5.6888 283.379 6.57422V7.26758C283.379 8.10091 283.118 8.79753 282.598 9.35742C282.083 9.91081 281.423 10.1875 280.615 10.1875C279.814 10.1875 279.147 9.91406 278.613 9.36719C278.079 8.82031 277.812 8.09766 277.812 7.19922V6.51562ZM278.76 7.26758C278.76 7.87305 278.926 8.37109 279.258 8.76172C279.596 9.15234 280.049 9.34766 280.615 9.34766C281.169 9.34766 281.608 9.15234 281.934 8.76172C282.266 8.36458 282.432 7.85352 282.432 7.22852V6.51562C282.432 5.91016 282.262 5.41211 281.924 5.02148C281.585 4.62435 281.143 4.42578 280.596 4.42578C280.055 4.42578 279.613 4.62109 279.268 5.01172C278.929 5.40234 278.76 5.92318 278.76 6.57422V7.26758ZM284.971 14.5137C284.971 13.6673 285.231 12.9674 285.752 12.4141C286.279 11.8607 286.943 11.584 287.744 11.584C288.545 11.584 289.209 11.8607 289.736 12.4141C290.27 12.9609 290.537 13.6836 290.537 14.582V15.2754C290.537 16.1217 290.273 16.8216 289.746 17.375C289.225 17.9284 288.564 18.2051 287.764 18.2051C286.963 18.2051 286.296 17.9316 285.762 17.3848C285.234 16.8314 284.971 16.112 284.971 15.2266V14.5137ZM285.908 15.2754C285.908 15.8874 286.074 16.3887 286.406 16.7793C286.745 17.1699 287.197 17.3652 287.764 17.3652C288.324 17.3652 288.766 17.1699 289.092 16.7793C289.424 16.3822 289.59 15.8646 289.59 15.2266V14.5137C289.59 13.8887 289.421 13.3874 289.082 13.0098C288.75 12.6257 288.304 12.4336 287.744 12.4336C287.197 12.4336 286.755 12.6257 286.416 13.0098C286.077 13.3939 285.908 13.9082 285.908 14.5527V15.2754ZM280.986 16.8184L280.254 16.3496L287.197 5.23633L287.93 5.70508L280.986 16.8184Z" fill="#777777"/>
<path d="M320.99 190H319.818V177.188L315.951 178.623V177.529L320.795 175.732H320.99V190ZM335.219 184.072C335.219 186.077 334.851 187.601 334.115 188.643C333.38 189.678 332.296 190.195 330.863 190.195C329.457 190.195 328.38 189.688 327.631 188.672C326.882 187.65 326.498 186.165 326.479 184.219V181.67C326.479 179.671 326.85 178.158 327.592 177.129C328.334 176.1 329.418 175.586 330.844 175.586C332.25 175.586 333.324 176.084 334.066 177.08C334.809 178.07 335.193 179.531 335.219 181.465V184.072ZM334.047 181.523C334.047 179.896 333.78 178.665 333.246 177.832C332.719 176.999 331.918 176.582 330.844 176.582C329.789 176.582 328.995 176.989 328.461 177.803C327.927 178.617 327.654 179.818 327.641 181.406V184.199C327.641 185.82 327.914 187.061 328.461 187.92C329.014 188.779 329.815 189.209 330.863 189.209C331.905 189.209 332.693 188.789 333.227 187.949C333.767 187.109 334.04 185.879 334.047 184.258V181.523ZM337.641 189.297C337.641 189.069 337.712 188.877 337.855 188.721C338.005 188.558 338.21 188.477 338.471 188.477C338.731 188.477 338.936 188.558 339.086 188.721C339.236 188.877 339.311 189.069 339.311 189.297C339.311 189.525 339.236 189.714 339.086 189.863C338.936 190.007 338.731 190.078 338.471 190.078C338.21 190.078 338.005 190.007 337.855 189.863C337.712 189.714 337.641 189.525 337.641 189.297ZM337.66 180.283C337.66 180.055 337.732 179.863 337.875 179.707C338.025 179.544 338.23 179.463 338.49 179.463C338.751 179.463 338.956 179.544 339.105 179.707C339.255 179.863 339.33 180.055 339.33 180.283C339.33 180.511 339.255 180.7 339.105 180.85C338.956 180.993 338.751 181.064 338.49 181.064C338.23 181.064 338.025 180.993 337.875 180.85C337.732 180.7 337.66 180.511 337.66 180.283ZM350.512 184.072C350.512 186.077 350.144 187.601 349.408 188.643C348.673 189.678 347.589 190.195 346.156 190.195C344.75 190.195 343.673 189.688 342.924 188.672C342.175 187.65 341.791 186.165 341.771 184.219V181.67C341.771 179.671 342.143 178.158 342.885 177.129C343.627 176.1 344.711 175.586 346.137 175.586C347.543 175.586 348.617 176.084 349.359 177.08C350.102 178.07 350.486 179.531 350.512 181.465V184.072ZM349.34 181.523C349.34 179.896 349.073 178.665 348.539 177.832C348.012 176.999 347.211 176.582 346.137 176.582C345.082 176.582 344.288 176.989 343.754 177.803C343.22 178.617 342.947 179.818 342.934 181.406V184.199C342.934 185.82 343.207 187.061 343.754 187.92C344.307 188.779 345.108 189.209 346.156 189.209C347.198 189.209 347.986 188.789 348.52 187.949C349.06 187.109 349.333 185.879 349.34 184.258V181.523ZM361.605 184.072C361.605 186.077 361.238 187.601 360.502 188.643C359.766 189.678 358.682 190.195 357.25 190.195C355.844 190.195 354.766 189.688 354.018 188.672C353.269 187.65 352.885 186.165 352.865 184.219V181.67C352.865 179.671 353.236 178.158 353.979 177.129C354.721 176.1 355.805 175.586 357.23 175.586C358.637 175.586 359.711 176.084 360.453 177.08C361.195 178.07 361.579 179.531 361.605 181.465V184.072ZM360.434 181.523C360.434 179.896 360.167 178.665 359.633 177.832C359.105 176.999 358.305 176.582 357.23 176.582C356.176 176.582 355.382 176.989 354.848 177.803C354.314 178.617 354.04 179.818 354.027 181.406V184.199C354.027 185.82 354.301 187.061 354.848 187.92C355.401 188.779 356.202 189.209 357.25 189.209C358.292 189.209 359.079 188.789 359.613 187.949C360.154 187.109 360.427 185.879 360.434 184.258V181.523Z" fill="#777777"/>
<path d="M573.67 190H564.764V189.102L569.637 183.574C570.444 182.643 571.004 181.875 571.316 181.27C571.629 180.664 571.785 180.075 571.785 179.502C571.785 178.604 571.521 177.894 570.994 177.373C570.467 176.846 569.741 176.582 568.816 176.582C567.859 176.582 567.085 176.888 566.492 177.5C565.906 178.112 565.613 178.906 565.613 179.883H564.451C564.451 179.082 564.63 178.353 564.988 177.695C565.353 177.038 565.867 176.523 566.531 176.152C567.202 175.775 567.964 175.586 568.816 175.586C570.118 175.586 571.134 175.928 571.863 176.611C572.599 177.295 572.967 178.226 572.967 179.404C572.967 180.068 572.758 180.794 572.342 181.582C571.932 182.37 571.206 183.353 570.164 184.531L566.199 189.014H573.67V190ZM584.432 184.072C584.432 186.077 584.064 187.601 583.328 188.643C582.592 189.678 581.508 190.195 580.076 190.195C578.67 190.195 577.592 189.688 576.844 188.672C576.095 187.65 575.711 186.165 575.691 184.219V181.67C575.691 179.671 576.062 178.158 576.805 177.129C577.547 176.1 578.631 175.586 580.057 175.586C581.463 175.586 582.537 176.084 583.279 177.08C584.021 178.07 584.406 179.531 584.432 181.465V184.072ZM583.26 181.523C583.26 179.896 582.993 178.665 582.459 177.832C581.932 176.999 581.131 176.582 580.057 176.582C579.002 176.582 578.208 176.989 577.674 177.803C577.14 178.617 576.867 179.818 576.854 181.406V184.199C576.854 185.82 577.127 187.061 577.674 187.92C578.227 188.779 579.028 189.209 580.076 189.209C581.118 189.209 581.906 188.789 582.439 187.949C582.98 187.109 583.253 185.879 583.26 184.258V181.523ZM586.854 189.297C586.854 189.069 586.925 188.877 587.068 188.721C587.218 188.558 587.423 188.477 587.684 188.477C587.944 188.477 588.149 188.558 588.299 188.721C588.449 188.877 588.523 189.069 588.523 189.297C588.523 189.525 588.449 189.714 588.299 189.863C588.149 190.007 587.944 190.078 587.684 190.078C587.423 190.078 587.218 190.007 587.068 189.863C586.925 189.714 586.854 189.525 586.854 189.297ZM586.873 180.283C586.873 180.055 586.945 179.863 587.088 179.707C587.238 179.544 587.443 179.463 587.703 179.463C587.964 179.463 588.169 179.544 588.318 179.707C588.468 179.863 588.543 180.055 588.543 180.283C588.543 180.511 588.468 180.7 588.318 180.85C588.169 180.993 587.964 181.064 587.703 181.064C587.443 181.064 587.238 180.993 587.088 180.85C586.945 180.7 586.873 180.511 586.873 180.283ZM599.725 184.072C599.725 186.077 599.357 187.601 598.621 188.643C597.885 189.678 596.801 190.195 595.369 190.195C593.963 190.195 592.885 189.688 592.137 188.672C591.388 187.65 591.004 186.165 590.984 184.219V181.67C590.984 179.671 591.355 178.158 592.098 177.129C592.84 176.1 593.924 175.586 595.35 175.586C596.756 175.586 597.83 176.084 598.572 177.08C599.314 178.07 599.699 179.531 599.725 181.465V184.072ZM598.553 181.523C598.553 179.896 598.286 178.665 597.752 177.832C597.225 176.999 596.424 176.582 595.35 176.582C594.295 176.582 593.501 176.989 592.967 177.803C592.433 178.617 592.16 179.818 592.146 181.406V184.199C592.146 185.82 592.42 187.061 592.967 187.92C593.52 188.779 594.321 189.209 595.369 189.209C596.411 189.209 597.199 188.789 597.732 187.949C598.273 187.109 598.546 185.879 598.553 184.258V181.523ZM610.818 184.072C610.818 186.077 610.451 187.601 609.715 188.643C608.979 189.678 607.895 190.195 606.463 190.195C605.057 190.195 603.979 189.688 603.23 188.672C602.482 187.65 602.098 186.165 602.078 184.219V181.67C602.078 179.671 602.449 178.158 603.191 177.129C603.934 176.1 605.018 175.586 606.443 175.586C607.85 175.586 608.924 176.084 609.666 177.08C610.408 178.07 610.792 179.531 610.818 181.465V184.072ZM609.646 181.523C609.646 179.896 609.38 178.665 608.846 177.832C608.318 176.999 607.518 176.582 606.443 176.582C605.389 176.582 604.594 176.989 604.061 177.803C603.527 178.617 603.253 179.818 603.24 181.406V184.199C603.24 185.82 603.514 187.061 604.061 187.92C604.614 188.779 605.415 189.209 606.463 189.209C607.505 189.209 608.292 188.789 608.826 187.949C609.367 187.109 609.64 185.879 609.646 184.258V181.523Z" fill="#777777"/>
</svg>

